<svg width="1021" height="1031" viewBox="0 0 1021 1031" fill="none" xmlns="http://www.w3.org/2000/svg">
<path d="M217.999 0.000183105C581.999 0.000183105 1021 0.000183105 1021 0.000183105V1031C1021 1031 509.999 1031 324.999 1031C139.999 1031 360.5 674 189.5 454C18.4993 234 -146.002 0.000183105 217.999 0.000183105Z" fill="white"/>
<path d="M217.999 0.000183105C581.999 0.000183105 1021 0.000183105 1021 0.000183105V1031C1021 1031 509.999 1031 324.999 1031C139.999 1031 360.5 674 189.5 454C18.4993 234 -146.002 0.000183105 217.999 0.000183105Z" fill="url(#paint0_linear_58_51)"/>
<defs>
<linearGradient id="paint0_linear_58_51" x1="1021" y1="1031" x2="1046.71" y2="24.7639" gradientUnits="userSpaceOnUse">
<stop stop-color="#015EEA"/>
<stop offset="1" stop-color="#00C0FA"/>
</linearGradient>
</defs>
</svg>
